<?xml version="1.0" encoding="UTF-8" standalone="no"?>
<svg
   xmlns:dc="http://purl.org/dc/elements/1.1/"
   xmlns:cc="http://creativecommons.org/ns#"
   xmlns:rdf="http://www.w3.org/1999/02/22-rdf-syntax-ns#"
   xmlns:svg="http://www.w3.org/2000/svg"
   xmlns="http://www.w3.org/2000/svg"
   xmlns:sodipodi="http://sodipodi.sourceforge.net/DTD/sodipodi-0.dtd"
   xmlns:inkscape="http://www.inkscape.org/namespaces/inkscape"
   width="86px"
   height="14px"
   version="1.1"
   id="svg3711"
   sodipodi:docname="separator.svg"
   inkscape:version="0.92.2 (5c3e80d, 2017-08-06)">
  <metadata
     id="metadata3717">
    <rdf:RDF>
      <cc:Work
         rdf:about="">
        <dc:format>image/svg+xml</dc:format>
        <dc:type
           rdf:resource="http://purl.org/dc/dcmitype/StillImage" />
      </cc:Work>
    </rdf:RDF>
  </metadata>
  <defs
     id="defs3715" />
  <sodipodi:namedview
     pagecolor="#ffffff"
     bordercolor="#666666"
     borderopacity="1"
     objecttolerance="10"
     gridtolerance="10"
     guidetolerance="10"
     inkscape:pageopacity="0"
     inkscape:pageshadow="2"
     inkscape:window-width="1366"
     inkscape:window-height="705"
     id="namedview3713"
     showgrid="false"
     inkscape:zoom="14.081395"
     inkscape:cx="31.45995"
     inkscape:cy="7"
     inkscape:window-x="-8"
     inkscape:window-y="-8"
     inkscape:window-maximized="1"
     inkscape:current-layer="svg3711" />
  <path
     fill-rule="evenodd"
     fill="rgb(255, 229, 0)"
     d="M79.154,0.241 C75.926,0.241 73.257,2.628 72.777,5.742 L49.495,5.742 C49.017,2.627 46.347,0.242 43.118,0.242 C39.890,0.242 37.220,2.627 36.741,5.742 L13.457,5.742 C12.978,2.626 10.311,0.242 7.080,0.242 C3.512,0.242 0.619,3.149 0.619,6.742 C0.619,10.332 3.512,13.241 7.080,13.241 C10.311,13.241 12.978,10.854 13.459,7.741 L36.741,7.741 C37.220,10.855 39.890,13.240 43.118,13.240 C46.347,13.240 49.017,10.855 49.495,7.742 L72.777,7.742 C73.258,10.856 75.926,13.239 79.154,13.242 C82.724,13.239 85.615,10.333 85.619,6.740 C85.615,3.151 82.724,0.241 79.154,0.241 ZM7.080,11.240 C4.609,11.235 2.609,9.226 2.607,6.742 C2.609,4.256 4.609,2.245 7.080,2.244 C9.551,2.245 11.551,4.256 11.553,6.742 C11.551,9.226 9.551,11.235 7.080,11.240 ZM43.118,11.241 C40.646,11.236 38.649,9.226 38.643,6.741 C38.649,4.256 40.646,2.246 43.118,2.241 C45.589,2.246 47.587,4.256 47.592,6.741 C47.587,9.226 45.589,11.236 43.118,11.241 ZM79.154,11.242 C76.684,11.236 74.687,9.225 74.682,6.740 C74.687,4.255 76.684,2.247 79.154,2.241 C81.625,2.247 83.625,4.255 83.627,6.740 C83.625,9.225 81.625,11.236 79.154,11.242 Z"
     id="path3709"
     style="fill:#0d6da5;fill-opacity:1" />
</svg>
